<svg xmlns="http://www.w3.org/2000/svg" xmlns:xlink="http://www.w3.org/1999/xlink" xmlns:lucid="lucid" width="893.11" height="1200"><g transform="translate(833.1092436974791 1060)" lucid:page-tab-id="XVjoKak.8Uez"><path d="M-341.18-493.63a6 6 0 0 1 6-6h151.36a6 6 0 0 1 6 6v108a6 6 0 0 1-6 6h-151.36a6 6 0 0 1-6-6z" stroke="#3a414a" fill="#fff"/><path d="M-341.18-459.63h163.36m-163.36 40h163.36" stroke="#3a414a" fill="none"/><use xlink:href="#a" transform="matrix(1,0,0,1,-333.17647058823536,-491.6325484126328) translate(50.69444444444445 16)"/><path d="M-341.18-297.72a6 6 0 0 1 6-6h151.36a6 6 0 0 1 6 6v108a6 6 0 0 1-6 6h-151.36a6 6 0 0 1-6-6z" stroke="#3a414a" fill="#fff"/><path d="M-341.18-263.72h163.36m-163.36 40h163.36" stroke="#3a414a" fill="none"/><use xlink:href="#b" transform="matrix(1,0,0,1,-333.17647058823536,-295.7239032574406) translate(50.66666666666667 16)"/><path d="M-123.36-297.72a6 6 0 0 1 6-6H34a6 6 0 0 1 6 6v108a6 6 0 0 1-6 6h-151.36a6 6 0 0 1-6-6z" stroke="#3a414a" fill="#fff"/><path d="M-123.36-263.72H40m-163.36 40H40" stroke="#3a414a" fill="none"/><use xlink:href="#c" transform="matrix(1,0,0,1,-115.36134453781509,-295.7239032574406) translate(42.94444444444446 16)"/><path d="M-250.42-75.44a6 6 0 0 1 6-6h151.36a6 6 0 0 1 6 6v108a6 6 0 0 1-6 6h-151.36a6 6 0 0 1-6-6z" stroke="#3a414a" fill="#fff"/><path d="M-250.42-41.44h163.36m-163.36 40h163.36" stroke="#3a414a" fill="none"/><use xlink:href="#d" transform="matrix(1,0,0,1,-242.4201680672269,-73.43941774873883) translate(55.69444444444444 16)"/><path d="M-431.93-75.5a6 6 0 0 1 6-6h151.36a6 6 0 0 1 6 6v108a6 6 0 0 1-6 6h-151.36a6 6 0 0 1-6-6z" stroke="#3a414a" fill="#fff"/><path d="M-431.93-41.5h163.36m-163.36 40h163.36" stroke="#3a414a" fill="none"/><use xlink:href="#e" transform="matrix(1,0,0,1,-423.9327731092437,-73.49003390951975) translate(46.25000000000001 16)"/><path d="M-259.5-348.8v44.1" stroke="#3a414a" fill="none"/><path d="M-259.5-378.46l14.85 14.85-14.85 15.14-14.85-15.15z" stroke="#3a414a" fill="#3a414a"/><path d="M-259-304.2h-1v-.5h1z" stroke="#3a414a" stroke-width=".05" fill="#3a414a"/><use xlink:href="#f" transform="matrix(1,0,0,1,-292.99579831932783,-378.9692979667199) translate(0 14.4)"/><path d="M-595.3-395.68a6 6 0 0 1 6-6h151.37a6 6 0 0 1 6 6v108a6 6 0 0 1-6 6H-589.3a6 6 0 0 1-6-6z" stroke="#3a414a" fill="#fff"/><path d="M-595.3-361.68h163.37m-163.36 40h163.37" stroke="#3a414a" fill="none"/><use xlink:href="#g" transform="matrix(1,0,0,1,-587.2941176470588,-393.67822583503676) translate(46.80555555555556 16)"/><path d="M-386.13-346.68l-.24 1-.4.95-.52.87-.66.78-.77.66-.87.53-.95.4-1 .24-.98.08h-38.44v-1h38.4l.88-.07.84-.2.8-.33.74-.45.65-.56.56-.65.44-.73.33-.8.2-.82.03-33.2h1zm28.1-92.45l-23.4.07-.82.2-.8.33-.74.45-.64.56-.56.66-.45.73-.33.8-.2.84-.07.9-.03 32.28h-1l.03-32.33.07-1 .24-1 .4-.93.53-.87.65-.78.77-.66.87-.53.94-.4 1-.23 23.53-.07z" stroke="#3a414a" stroke-width=".05" fill="#3a414a"/><path d="M-430.96-341.18h-.5v-1h.5z" fill="#3a414a"/><path d="M-430.93-341.15h-.56v-1.05h.57zm-.5-1v.95h.45v-.95z" stroke="#3a414a" stroke-width=".05" fill="#3a414a"/><path d="M-343.26-439.63l-14.26 4.63v-9.27z" fill="#3a414a"/><path d="M-341.64-439.63l-16.38 5.32v-10.66zm-15.38 3.94l12.14-3.93-12.14-3.95z" stroke="#3a414a" stroke-width=".05" fill="#3a414a"/><use xlink:href="#h" transform="matrix(1,0,0,1,-408.2336339633261,-401.32205379050146) translate(0 14.222222222222223)"/><use xlink:href="#f" transform="matrix(1,0,0,1,-351.6398117971802,-469.867803328257) translate(0 14.4)"/><path d="M-386.05-249.74l.06.88.22.84.33.8.45.73.56.66.65.56.75.46.8.33.82.2 23.4.08v1l-23.52-.08-1-.24-.96-.4-.88-.52-.77-.67-.66-.77-.55-.87-.4-.94-.23-1-.07-1v-11.2h1zm-5.5-92.36l1 .24.95.4.87.52.77.66.67.78.54.87.4.94.23 1.02.05 54.45h-1l-.05-54.33-.2-.82-.33-.8-.45-.73-.57-.67-.65-.56-.74-.45-.8-.33-.83-.2-.87-.08h-38.4v-1h38.44z" stroke="#3a414a" stroke-width=".05" fill="#3a414a"/><path d="M-430.96-341.18h-.5v-1h.5z" fill="#3a414a"/><path d="M-430.93-341.15h-.56v-1.05h.57zm-.5-1v.95h.45v-.95z" stroke="#3a414a" stroke-width=".05" fill="#3a414a"/><path d="M-343.26-243.72l-14.26 4.63v-9.26z" fill="#3a414a"/><path d="M-341.64-243.72l-16.38 5.32v-10.65zm-15.38 3.94l12.14-3.94-12.14-3.95z" stroke="#3a414a" stroke-width=".05" fill="#3a414a"/><use xlink:href="#i" transform="matrix(1,0,0,1,-407.2459796423384,-282.2327787398331) translate(0 14.222222222222223)"/><use xlink:href="#j" transform="matrix(1,0,0,1,-430.96943143811404,-337.67822583503676) translate(0 14.4)"/><use xlink:href="#f" transform="matrix(1,0,0,1,-351.6398117971802,-273.95915817306485) translate(0 14.4)"/><path d="M-813.1-591.6a6 6 0 0 1 6-6h151.35a6 6 0 0 1 6 6v108a6 6 0 0 1-6 6H-807.1a6 6 0 0 1-6-6z" stroke="#3a414a" fill="#fff"/><path d="M-813.1-557.6h163.35m-163.36 40h163.35" stroke="#3a414a" fill="none"/><use xlink:href="#k" transform="matrix(1,0,0,1,-805.1092436974791,-589.5868709902289) translate(15.722222222222221 16)"/><path d="M-813.1-187.53a6 6 0 0 1 6-6h151.35a6 6 0 0 1 6 6v108a6 6 0 0 1-6 6H-807.1a6 6 0 0 1-6-6z" stroke="#3a414a" fill="#fff"/><path d="M-813.1-153.53h163.35m-163.36 40h163.35" stroke="#3a414a" fill="none"/><use xlink:href="#l" transform="matrix(1,0,0,1,-805.1092436974791,-185.52529035764508) translate(20.72222222222222 16)"/><path d="M-813.1-774a6 6 0 0 1 6-6h151.35a6 6 0 0 1 6 6v108a6 6 0 0 1-6 6H-807.1a6 6 0 0 1-6-6z" stroke="#3a414a" fill="#fff"/><path d="M-813.1-740h163.35m-163.36 40h163.35" stroke="#3a414a" fill="none"/><use xlink:href="#m" transform="matrix(1,0,0,1,-805.1092436974791,-772) translate(-5.388888888888886 16)"/><path d="M-813.1 6a6 6 0 0 1 6-6h151.35a6 6 0 0 1 6 6v108a6 6 0 0 1-6 6H-807.1a6 6 0 0 1-6-6z" stroke="#3a414a" fill="#fff"/><path d="M-813.1 40h163.35M-813.1 80h163.35" stroke="#3a414a" fill="none"/><use xlink:href="#n" transform="matrix(1,0,0,1,-805.1092436974791,8) translate(-0.38888888888888573 16)"/><path d="M-731.43-659.04v44.6" stroke="#3a414a" fill="none"/><path d="M-730.93-659.02h-1v-.52h1z" stroke="#3a414a" stroke-width=".05" fill="#3a414a"/><path d="M-731.43-599.67l-4.63-14.26h9.27z" stroke="#3a414a" fill="#fff"/><path d="M-731.43-.96v-55.72" stroke="#3a414a" fill="none"/><path d="M-730.93-.46h-1v-.52h1z" stroke="#3a414a" stroke-width=".05" fill="#3a414a"/><path d="M-731.43-71.44l4.64 14.26h-9.26zM-341.18-677.3a6 6 0 0 1 6-6h151.36a6 6 0 0 1 6 6v108a6 6 0 0 1-6 6h-151.36a6 6 0 0 1-6-6z" stroke="#3a414a" fill="#fff"/><path d="M-341.18-643.3h163.36m-163.36 40h163.36" stroke="#3a414a" fill="none"/><use xlink:href="#o" transform="matrix(1,0,0,1,-333.17647058823536,-675.2969032456256) translate(3 16)"/><path d="M-259.5-562.33v45.85" stroke="#3a414a" fill="none"/><path d="M-259-562.32h-1v-.5h1z" stroke="#3a414a" stroke-width=".05" fill="#3a414a"/><path d="M-259.5-501.7l-4.63-14.28h9.27z" stroke="#3a414a" fill="#3a414a"/><use xlink:href="#f" transform="matrix(1,0,0,1,-277.49579831932783,-562.6336527997125) translate(0 14.4)"/><use xlink:href="#j" transform="matrix(1,0,0,1,-246.86054340370364,-521.8957988583213) translate(0 14.4)"/><path d="M-813.1-395.68a6 6 0 0 1 6-6h151.35a6 6 0 0 1 6 6v108a6 6 0 0 1-6 6H-807.1a6 6 0 0 1-6-6z" stroke="#3a414a" fill="#fff"/><path d="M-813.1-361.68h163.35m-163.36 40h163.35" stroke="#3a414a" fill="none"/><use xlink:href="#p" transform="matrix(1,0,0,1,-805.1092436974791,-393.67822583503676) translate(-0.8888888888888857 16)"/><path d="M-648.78-341.68h36.64" stroke="#3a414a" fill="none"/><path d="M-648.77-341.18h-.5v-1h.5z" stroke="#3a414a" stroke-width=".05" fill="#3a414a"/><path d="M-597.38-341.68l-14.26 4.64v-9.27z" stroke="#3a414a" fill="#3a414a"/><use xlink:href="#f" transform="matrix(1,0,0,1,-649.2845574885343,-337.67822583503676) translate(0 14.4)"/><use xlink:href="#j" transform="matrix(1,0,0,1,-603.2574588560035,-371.91348075066094) translate(0 14.4)"/><path d="M-341.18-855.65a6 6 0 0 1 6-6h151.36a6 6 0 0 1 6 6v108a6 6 0 0 1-6 6h-151.36a6 6 0 0 1-6-6z" stroke="#3a414a" fill="#fff"/><path d="M-341.18-821.65h163.36m-163.36 40h163.36" stroke="#3a414a" fill="none"/><use xlink:href="#q" transform="matrix(1,0,0,1,-333.17647058823536,-853.6484516228129) translate(19.611111111111114 16)"/><path d="M-259.5-684.26v-40.54" stroke="#3a414a" fill="none"/><path d="M-259-683.76h-1v-.5h1z" stroke="#3a414a" stroke-width=".05" fill="#3a414a"/><path d="M-259.5-739.57l4.64 14.27h-9.27z" stroke="#3a414a" fill="#3a414a"/><use xlink:href="#f" transform="matrix(1,0,0,1,-282.13105323495205,-740.9852011769) translate(0 14.4)"/><path d="M-146.98-243.72h22.66" stroke="#3a414a" fill="none"/><path d="M-176.64-243.72l14.84-14.85 15.16 14.85-15.16 14.85z" stroke="#3a414a" fill="#3a414a"/><path d="M-123.82-243.22h-.52v-1h.5z" stroke="#3a414a" stroke-width=".05" fill="#3a414a"/><use xlink:href="#f" transform="matrix(1,0,0,1,-177.3517843792906,-224.2239032574406) translate(0 14.4)"/><use xlink:href="#j" transform="matrix(1,0,0,1,-131.32468574675983,-269.3239032574406) translate(0 14.4)"/><path d="M-41.68-334.56v-12.14a6 6 0 0 0-6-6H-253.5a6 6 0 0 0-6 6v42" stroke="#3a414a" fill="none"/><path d="M-41.68-304.9l-14.85-14.84 14.85-15.15 14.85 15.16z" stroke="#3a414a" fill="#3a414a"/><path d="M-259-304.2h-1v-.5h1z" stroke="#3a414a" stroke-width=".05" fill="#3a414a"/><use xlink:href="#f" transform="matrix(1,0,0,1,-18.18067226890753,-325.98715370312914) translate(0 14.4)"/><use xlink:href="#f" transform="matrix(1,0,0,1,-251.49579831966577,-325.98715370312897) translate(0 14.4)"/><path d="M-259.5-152.9v14.3a6 6 0 0 1-6 6h-78.37a6 6 0 0 0-6 6v44.15" stroke="#3a414a" fill="none"/><path d="M-259.5-182.55l14.85 14.85-14.85 15.15-14.85-15.15z" stroke="#3a414a" fill="#3a414a"/><path d="M-349.37-81.95h-1v-.52h1z" stroke="#3a414a" stroke-width=".05" fill="#3a414a"/><use xlink:href="#f" transform="matrix(1,0,0,1,-292.99579831932783,-183.06065281152772) translate(0 14.4)"/><use xlink:href="#j" transform="matrix(1,0,0,1,-341.8684483042522,-103.75347065220872) translate(0 14.4)"/><path d="M-259.5-152.9v14.32a6 6 0 0 0 6 6h78.76a6 6 0 0 1 6 6v44.18" stroke="#3a414a" fill="none"/><path d="M-259.5-182.55l14.85 14.85-14.85 15.15-14.85-15.15z" stroke="#3a414a" fill="#3a414a"/><path d="M-168.24-81.9h-1v-.52h1z" stroke="#3a414a" stroke-width=".05" fill="#3a414a"/><use xlink:href="#r" transform="matrix(1,0,0,1,-160.73949579831935,-103.70266819442729) translate(0 14.4)"/><path d="M-731.43-460.74v58.1" stroke="#3a414a" fill="none"/><path d="M-731.43-475.5l4.64 14.26h-9.26z" stroke="#3a414a" fill="#3a414a"/><path d="M-730.93-402.14h-1v-.5h1z" stroke="#3a414a" stroke-width=".05" fill="#3a414a"/><use xlink:href="#f" transform="matrix(1,0,0,1,-754.0638263441958,-476.923620544316) translate(0 14.4)"/><path d="M-731.43-210.37v-70.34" stroke="#3a414a" fill="none"/><path d="M-731.43-195.6l-4.63-14.27h9.27z" stroke="#3a414a" fill="#3a414a"/><path d="M-730.93-280.7h-1v-.5l1-.02z" stroke="#3a414a" stroke-width=".05" fill="#3a414a"/><use xlink:href="#f" transform="matrix(1,0,0,1,-718.7933165129474,-215.78854080333358) translate(0 14.4)"/><path d="M-341.18-1034a6 6 0 0 1 6-6h151.36a6 6 0 0 1 6 6v108a6 6 0 0 1-6 6h-151.36a6 6 0 0 1-6-6z" stroke="#3a414a" fill="#fff"/><path d="M-341.18-1000h163.36m-163.36 40h163.36" stroke="#3a414a" fill="none"/><use xlink:href="#s" transform="matrix(1,0,0,1,-333.17647058823536,-1032) translate(-1.5 16)"/><path d="M-259.5-919.04v40.54" stroke="#3a414a" fill="none"/><path d="M-259-919.02h-1v-.52h1z" stroke="#3a414a" stroke-width=".05" fill="#3a414a"/><path d="M-259.5-863.73l-4.63-14.27h9.27z" stroke="#3a414a" fill="#fff"/><path d="M-41.68-152.9v125.46a6 6 0 0 1-6 6H-86.1" stroke="#3a414a" fill="none"/><path d="M-41.68-182.55l14.85 14.85-14.85 15.15-14.85-15.15z" stroke="#3a414a" fill="#3a414a"/><path d="M-86.08-20.94h-.52v-1h.52z" stroke="#3a414a" stroke-width=".05" fill="#3a414a"/><use xlink:href="#f" transform="matrix(1,0,0,1,-75.18067226890753,-183.06065281152772) translate(0 14.4)"/><use xlink:href="#t" transform="matrix(1,0,0,1,-86.09548185828211,-17.439417748738833) translate(0 14.4)"/><defs><path fill="#3a414a" d="M185-189c-5-48-123-54-124 2 14 75 158 14 163 119 3 78-121 87-175 55-17-10-28-26-33-46l33-7c5 56 141 63 141-1 0-78-155-14-162-118-5-82 145-84 179-34 5 7 8 16 11 25" id="u"/><path fill="#3a414a" d="M59-47c-2 24 18 29 38 22v24C64 9 27 4 27-40v-127H5v-23h24l9-43h21v43h35v23H59v120" id="v"/><path fill="#3a414a" d="M100-194c62-1 85 37 85 99 1 63-27 99-86 99S16-35 15-95c0-66 28-99 85-99zM99-20c44 1 53-31 53-75 0-43-8-75-51-75s-53 32-53 75 10 74 51 75" id="w"/><path fill="#3a414a" d="M114-163C36-179 61-72 57 0H25l-1-190h30c1 12-1 29 2 39 6-27 23-49 58-41v29" id="x"/><path fill="#3a414a" d="M179-190L93 31C79 59 56 82 12 73V49c39 6 53-20 64-50L1-190h34L92-34l54-156h33" id="y"/><g id="a"><use transform="matrix(0.055555555555555546,0,0,0.055555555555555546,0,0)" xlink:href="#u"/><use transform="matrix(0.055555555555555546,0,0,0.055555555555555546,13.33333333333333,0)" xlink:href="#v"/><use transform="matrix(0.055555555555555546,0,0,0.055555555555555546,18.888888888888886,0)" xlink:href="#w"/><use transform="matrix(0.055555555555555546,0,0,0.055555555555555546,29.999999999999993,0)" xlink:href="#x"/><use transform="matrix(0.055555555555555546,0,0,0.055555555555555546,36.6111111111111,0)" xlink:href="#y"/></g><path fill="#3a414a" d="M30-248c87 1 191-15 191 75 0 78-77 80-158 76V0H30v-248zm33 125c57 0 124 11 124-50 0-59-68-47-124-48v98" id="z"/><path fill="#3a414a" d="M141-36C126-15 110 5 73 4 37 3 15-17 15-53c-1-64 63-63 125-63 3-35-9-54-41-54-24 1-41 7-42 31l-33-3c5-37 33-52 76-52 45 0 72 20 72 64v82c-1 20 7 32 28 27v20c-31 9-61-2-59-35zM48-53c0 20 12 33 32 33 41-3 63-29 60-74-43 2-92-5-92 41" id="A"/><path fill="#3a414a" d="M177-190C167-65 218 103 67 71c-23-6-38-20-44-43l32-5c15 47 100 32 89-28v-30C133-14 115 1 83 1 29 1 15-40 15-95c0-56 16-97 71-98 29-1 48 16 59 35 1-10 0-23 2-32h30zM94-22c36 0 50-32 50-73 0-42-14-75-50-75-39 0-46 34-46 75s6 73 46 73" id="B"/><path fill="#3a414a" d="M100-194c63 0 86 42 84 106H49c0 40 14 67 53 68 26 1 43-12 49-29l28 8c-11 28-37 45-77 45C44 4 14-33 15-96c1-61 26-98 85-98zm52 81c6-60-76-77-97-28-3 7-6 17-6 28h103" id="C"/><g id="b"><use transform="matrix(0.055555555555555546,0,0,0.055555555555555546,0,0)" xlink:href="#z"/><use transform="matrix(0.055555555555555546,0,0,0.055555555555555546,13.33333333333333,0)" xlink:href="#A"/><use transform="matrix(0.055555555555555546,0,0,0.055555555555555546,24.44444444444444,0)" xlink:href="#B"/><use transform="matrix(0.055555555555555546,0,0,0.055555555555555546,35.55555555555555,0)" xlink:href="#C"/></g><path fill="#3a414a" d="M212-179c-10-28-35-45-73-45-59 0-87 40-87 99 0 60 29 101 89 101 43 0 62-24 78-52l27 14C228-24 195 4 139 4 59 4 22-46 18-125c-6-104 99-153 187-111 19 9 31 26 39 46" id="D"/><path fill="#3a414a" d="M106-169C34-169 62-67 57 0H25v-261h32l-1 103c12-21 28-36 61-36 89 0 53 116 60 194h-32v-121c2-32-8-49-39-48" id="E"/><path fill="#3a414a" d="M24-231v-30h32v30H24zM24 0v-190h32V0H24" id="F"/><path fill="#3a414a" d="M96-169c-40 0-48 33-48 73s9 75 48 75c24 0 41-14 43-38l32 2c-6 37-31 61-74 61-59 0-76-41-82-99-10-93 101-131 147-64 4 7 5 14 7 22l-32 3c-4-21-16-35-41-35" id="G"/><g id="c"><use transform="matrix(0.055555555555555546,0,0,0.055555555555555546,0,0)" xlink:href="#D"/><use transform="matrix(0.055555555555555546,0,0,0.055555555555555546,14.388888888888886,0)" xlink:href="#E"/><use transform="matrix(0.055555555555555546,0,0,0.055555555555555546,25.499999999999993,0)" xlink:href="#w"/><use transform="matrix(0.055555555555555546,0,0,0.055555555555555546,36.6111111111111,0)" xlink:href="#F"/><use transform="matrix(0.055555555555555546,0,0,0.055555555555555546,40.999999999999986,0)" xlink:href="#G"/><use transform="matrix(0.055555555555555546,0,0,0.055555555555555546,50.999999999999986,0)" xlink:href="#C"/></g><path fill="#3a414a" d="M127-220V0H93v-220H8v-28h204v28h-85" id="H"/><path fill="#3a414a" d="M141 0L90-78 38 0H4l68-98-65-92h35l48 74 47-74h35l-64 92 68 98h-35" id="I"/><g id="d"><use transform="matrix(0.055555555555555546,0,0,0.055555555555555546,0,0)" xlink:href="#H"/><use transform="matrix(0.055555555555555546,0,0,0.055555555555555546,9.944444444444443,0)" xlink:href="#C"/><use transform="matrix(0.055555555555555546,0,0,0.055555555555555546,21.05555555555555,0)" xlink:href="#I"/><use transform="matrix(0.055555555555555546,0,0,0.055555555555555546,31.05555555555555,0)" xlink:href="#v"/></g><path fill="#3a414a" d="M33 0v-248h34V0H33" id="J"/><path fill="#3a414a" d="M210-169c-67 3-38 105-44 169h-31v-121c0-29-5-50-35-48C34-165 62-65 56 0H25l-1-190h30c1 10-1 24 2 32 10-44 99-50 107 0 11-21 27-35 58-36 85-2 47 119 55 194h-31v-121c0-29-5-49-35-48" id="K"/><g id="e"><use transform="matrix(0.055555555555555546,0,0,0.055555555555555546,0,0)" xlink:href="#J"/><use transform="matrix(0.055555555555555546,0,0,0.055555555555555546,5.5555555555555545,0)" xlink:href="#K"/><use transform="matrix(0.055555555555555546,0,0,0.055555555555555546,22.16666666666666,0)" xlink:href="#A"/><use transform="matrix(0.055555555555555546,0,0,0.055555555555555546,33.27777777777777,0)" xlink:href="#B"/><use transform="matrix(0.055555555555555546,0,0,0.055555555555555546,44.38888888888888,0)" xlink:href="#C"/></g><path d="M27 0v-27h64v-190l-56 39v-29l58-41h29v221h61V0H27" id="L"/><use transform="matrix(0.05,0,0,0.05,0,0)" xlink:href="#L" id="f"/><path fill="#3a414a" d="M143 4C61 4 22-44 18-125c-5-107 100-154 193-111 17 8 29 25 37 43l-32 9c-13-25-37-40-76-40-61 0-88 39-88 99 0 61 29 100 91 101 35 0 62-11 79-27v-45h-74v-28h105v86C228-13 192 4 143 4" id="M"/><g id="g"><use transform="matrix(0.055555555555555546,0,0,0.055555555555555546,0,0)" xlink:href="#M"/><use transform="matrix(0.055555555555555546,0,0,0.055555555555555546,15.555555555555554,0)" xlink:href="#A"/><use transform="matrix(0.055555555555555546,0,0,0.055555555555555546,26.666666666666664,0)" xlink:href="#K"/><use transform="matrix(0.055555555555555546,0,0,0.055555555555555546,43.27777777777777,0)" xlink:href="#C"/></g><path fill="#333" d="M137-138c1-29-70-34-71-4 15 46 118 7 119 86 1 83-164 76-172 9l43-7c4 19 20 25 44 25 33 8 57-30 24-41C81-84 22-81 20-136c-2-80 154-74 161-7" id="N"/><path fill="#333" d="M115-3C79 11 28 4 28-45v-112H4v-33h27l15-45h31v45h36v33H77v99c-1 23 16 31 38 25v30" id="O"/><path fill="#333" d="M110-194c64 0 96 36 96 99 0 64-35 99-97 99-61 0-95-36-95-99 0-62 34-99 96-99zm-1 164c35 0 45-28 45-65 0-40-10-65-43-65-34 0-45 26-45 65 0 36 10 65 43 65" id="P"/><path fill="#333" d="M135-150c-39-12-60 13-60 57V0H25l-1-190h47c2 13-1 29 3 40 6-28 27-53 61-41v41" id="Q"/><path fill="#333" d="M123 10C108 53 80 86 19 72V37c35 8 53-11 59-39L3-190h52l48 148c12-52 28-100 44-148h51" id="R"/><g id="h"><use transform="matrix(0.04938271604938272,0,0,0.04938271604938272,0,0)" xlink:href="#N"/><use transform="matrix(0.04938271604938272,0,0,0.04938271604938272,9.876543209876544,0)" xlink:href="#O"/><use transform="matrix(0.04938271604938272,0,0,0.04938271604938272,15.753086419753087,0)" xlink:href="#P"/><use transform="matrix(0.04938271604938272,0,0,0.04938271604938272,26.567901234567902,0)" xlink:href="#Q"/><use transform="matrix(0.04938271604938272,0,0,0.04938271604938272,33.48148148148149,0)" xlink:href="#R"/></g><path fill="#333" d="M133-34C117-15 103 5 69 4 32 3 11-16 11-54c-1-60 55-63 116-61 1-26-3-47-28-47-18 1-26 9-28 27l-52-2c7-38 36-58 82-57s74 22 75 68l1 82c-1 14 12 18 25 15v27c-30 8-71 5-69-32zm-48 3c29 0 43-24 42-57-32 0-66-3-65 30 0 17 8 27 23 27" id="S"/><path fill="#333" d="M185-48c-13 30-37 53-82 52C43 2 14-33 14-96s30-98 90-98c62 0 83 45 84 108H66c0 31 8 55 39 56 18 0 30-7 34-22zm-45-69c5-46-57-63-70-21-2 6-4 13-4 21h74" id="T"/><g id="i"><use transform="matrix(0.04938271604938272,0,0,0.04938271604938272,0,0)" xlink:href="#N"/><use transform="matrix(0.04938271604938272,0,0,0.04938271604938272,9.876543209876544,0)" xlink:href="#O"/><use transform="matrix(0.04938271604938272,0,0,0.04938271604938272,15.753086419753087,0)" xlink:href="#S"/><use transform="matrix(0.04938271604938272,0,0,0.04938271604938272,25.629629629629633,0)" xlink:href="#O"/><use transform="matrix(0.04938271604938272,0,0,0.04938271604938272,31.506172839506174,0)" xlink:href="#T"/></g><path d="M80-196l47-18 7 23-49 13 32 44-20 13-27-46-27 45-21-12 33-44-49-13 8-23 47 19-2-53h23" id="U"/><use transform="matrix(0.05,0,0,0.05,0,0)" xlink:href="#U" id="j"/><path fill="#3a414a" d="M30 0v-248h33v221h125V0H30" id="V"/><path fill="#3a414a" d="M85-194c31 0 48 13 60 33l-1-100h32l1 261h-30c-2-10 0-23-3-31C134-8 116 4 85 4 32 4 16-35 15-94c0-66 23-100 70-100zm9 24c-40 0-46 34-46 75 0 40 6 74 45 74 42 0 51-32 51-76 0-42-9-74-50-73" id="W"/><g id="k"><use transform="matrix(0.055555555555555546,0,0,0.055555555555555546,0,0)" xlink:href="#M"/><use transform="matrix(0.055555555555555546,0,0,0.055555555555555546,15.555555555555554,0)" xlink:href="#A"/><use transform="matrix(0.055555555555555546,0,0,0.055555555555555546,26.666666666666664,0)" xlink:href="#K"/><use transform="matrix(0.055555555555555546,0,0,0.055555555555555546,43.27777777777777,0)" xlink:href="#C"/><use transform="matrix(0.055555555555555546,0,0,0.055555555555555546,54.38888888888888,0)" xlink:href="#V"/><use transform="matrix(0.055555555555555546,0,0,0.055555555555555546,65.49999999999999,0)" xlink:href="#w"/><use transform="matrix(0.055555555555555546,0,0,0.055555555555555546,76.6111111111111,0)" xlink:href="#A"/><use transform="matrix(0.055555555555555546,0,0,0.055555555555555546,87.72222222222221,0)" xlink:href="#W"/><use transform="matrix(0.055555555555555546,0,0,0.055555555555555546,98.83333333333333,0)" xlink:href="#C"/><use transform="matrix(0.055555555555555546,0,0,0.055555555555555546,109.94444444444444,0)" xlink:href="#x"/></g><path fill="#3a414a" d="M108 0H70L1-190h34L89-25l56-165h34" id="X"/><g id="l"><use transform="matrix(0.055555555555555546,0,0,0.055555555555555546,0,0)" xlink:href="#M"/><use transform="matrix(0.055555555555555546,0,0,0.055555555555555546,15.555555555555554,0)" xlink:href="#A"/><use transform="matrix(0.055555555555555546,0,0,0.055555555555555546,26.666666666666664,0)" xlink:href="#K"/><use transform="matrix(0.055555555555555546,0,0,0.055555555555555546,43.27777777777777,0)" xlink:href="#C"/><use transform="matrix(0.055555555555555546,0,0,0.055555555555555546,54.38888888888888,0)" xlink:href="#u"/><use transform="matrix(0.055555555555555546,0,0,0.055555555555555546,67.72222222222221,0)" xlink:href="#A"/><use transform="matrix(0.055555555555555546,0,0,0.055555555555555546,78.83333333333333,0)" xlink:href="#X"/><use transform="matrix(0.055555555555555546,0,0,0.055555555555555546,88.83333333333333,0)" xlink:href="#C"/><use transform="matrix(0.055555555555555546,0,0,0.055555555555555546,99.94444444444444,0)" xlink:href="#x"/></g><path fill="#3a414a" d="M153-248C145-148 188 4 80 4 36 3 13-21 6-62l32-5c4 25 16 42 43 43 27 0 39-20 39-49v-147H72v-28h81" id="Y"/><path fill="#3a414a" d="M135-143c-3-34-86-38-87 0 15 53 115 12 119 90S17 21 10-45l28-5c4 36 97 45 98 0-10-56-113-15-118-90-4-57 82-63 122-42 12 7 21 19 24 35" id="Z"/><path fill="#3a414a" d="M117-194c89-4 53 116 60 194h-32v-121c0-31-8-49-39-48C34-167 62-67 57 0H25l-1-190h30c1 10-1 24 2 32 11-22 29-35 61-36" id="aa"/><g id="m"><use transform="matrix(0.055555555555555546,0,0,0.055555555555555546,0,0)" xlink:href="#M"/><use transform="matrix(0.055555555555555546,0,0,0.055555555555555546,15.555555555555554,0)" xlink:href="#A"/><use transform="matrix(0.055555555555555546,0,0,0.055555555555555546,26.666666666666664,0)" xlink:href="#K"/><use transform="matrix(0.055555555555555546,0,0,0.055555555555555546,43.27777777777777,0)" xlink:href="#C"/><use transform="matrix(0.055555555555555546,0,0,0.055555555555555546,54.38888888888888,0)" xlink:href="#V"/><use transform="matrix(0.055555555555555546,0,0,0.055555555555555546,65.49999999999999,0)" xlink:href="#w"/><use transform="matrix(0.055555555555555546,0,0,0.055555555555555546,76.6111111111111,0)" xlink:href="#A"/><use transform="matrix(0.055555555555555546,0,0,0.055555555555555546,87.72222222222221,0)" xlink:href="#W"/><use transform="matrix(0.055555555555555546,0,0,0.055555555555555546,98.83333333333333,0)" xlink:href="#C"/><use transform="matrix(0.055555555555555546,0,0,0.055555555555555546,109.94444444444444,0)" xlink:href="#x"/><use transform="matrix(0.055555555555555546,0,0,0.055555555555555546,116.55555555555556,0)" xlink:href="#Y"/><use transform="matrix(0.055555555555555546,0,0,0.055555555555555546,126.55555555555556,0)" xlink:href="#Z"/><use transform="matrix(0.055555555555555546,0,0,0.055555555555555546,136.55555555555554,0)" xlink:href="#w"/><use transform="matrix(0.055555555555555546,0,0,0.055555555555555546,147.66666666666666,0)" xlink:href="#aa"/></g><g id="n"><use transform="matrix(0.055555555555555546,0,0,0.055555555555555546,0,0)" xlink:href="#M"/><use transform="matrix(0.055555555555555546,0,0,0.055555555555555546,15.555555555555554,0)" xlink:href="#A"/><use transform="matrix(0.055555555555555546,0,0,0.055555555555555546,26.666666666666664,0)" xlink:href="#K"/><use transform="matrix(0.055555555555555546,0,0,0.055555555555555546,43.27777777777777,0)" xlink:href="#C"/><use transform="matrix(0.055555555555555546,0,0,0.055555555555555546,54.38888888888888,0)" xlink:href="#u"/><use transform="matrix(0.055555555555555546,0,0,0.055555555555555546,67.72222222222221,0)" xlink:href="#A"/><use transform="matrix(0.055555555555555546,0,0,0.055555555555555546,78.83333333333333,0)" xlink:href="#X"/><use transform="matrix(0.055555555555555546,0,0,0.055555555555555546,88.83333333333333,0)" xlink:href="#C"/><use transform="matrix(0.055555555555555546,0,0,0.055555555555555546,99.94444444444444,0)" xlink:href="#x"/><use transform="matrix(0.055555555555555546,0,0,0.055555555555555546,106.55555555555556,0)" xlink:href="#Y"/><use transform="matrix(0.055555555555555546,0,0,0.055555555555555546,116.55555555555556,0)" xlink:href="#Z"/><use transform="matrix(0.055555555555555546,0,0,0.055555555555555546,126.55555555555556,0)" xlink:href="#w"/><use transform="matrix(0.055555555555555546,0,0,0.055555555555555546,137.66666666666666,0)" xlink:href="#aa"/></g><path fill="#3a414a" d="M233-177c-1 41-23 64-60 70L243 0h-38l-65-103H63V0H30v-248c88 3 205-21 203 71zM63-129c60-2 137 13 137-47 0-61-80-42-137-45v92" id="ab"/><path fill="#3a414a" d="M115-194c55 1 70 41 70 98S169 2 115 4C84 4 66-9 55-30l1 105H24l-1-265h31l2 30c10-21 28-34 59-34zm-8 174c40 0 45-34 45-75s-6-73-45-74c-42 0-51 32-51 76 0 43 10 73 51 73" id="ac"/><g id="o"><use transform="matrix(0.055555555555555546,0,0,0.055555555555555546,0,0)" xlink:href="#u"/><use transform="matrix(0.055555555555555546,0,0,0.055555555555555546,13.33333333333333,0)" xlink:href="#v"/><use transform="matrix(0.055555555555555546,0,0,0.055555555555555546,18.888888888888886,0)" xlink:href="#w"/><use transform="matrix(0.055555555555555546,0,0,0.055555555555555546,29.999999999999993,0)" xlink:href="#x"/><use transform="matrix(0.055555555555555546,0,0,0.055555555555555546,36.6111111111111,0)" xlink:href="#y"/><use transform="matrix(0.055555555555555546,0,0,0.055555555555555546,46.6111111111111,0)" xlink:href="#ab"/><use transform="matrix(0.055555555555555546,0,0,0.055555555555555546,60.999999999999986,0)" xlink:href="#C"/><use transform="matrix(0.055555555555555546,0,0,0.055555555555555546,72.1111111111111,0)" xlink:href="#ac"/><use transform="matrix(0.055555555555555546,0,0,0.055555555555555546,83.22222222222221,0)" xlink:href="#w"/><use transform="matrix(0.055555555555555546,0,0,0.055555555555555546,94.33333333333333,0)" xlink:href="#Z"/><use transform="matrix(0.055555555555555546,0,0,0.055555555555555546,104.33333333333333,0)" xlink:href="#F"/><use transform="matrix(0.055555555555555546,0,0,0.055555555555555546,108.72222222222221,0)" xlink:href="#v"/><use transform="matrix(0.055555555555555546,0,0,0.055555555555555546,114.27777777777779,0)" xlink:href="#w"/><use transform="matrix(0.055555555555555546,0,0,0.055555555555555546,125.38888888888889,0)" xlink:href="#x"/><use transform="matrix(0.055555555555555546,0,0,0.055555555555555546,132,0)" xlink:href="#y"/></g><g id="p"><use transform="matrix(0.055555555555555546,0,0,0.055555555555555546,0,0)" xlink:href="#M"/><use transform="matrix(0.055555555555555546,0,0,0.055555555555555546,15.555555555555554,0)" xlink:href="#A"/><use transform="matrix(0.055555555555555546,0,0,0.055555555555555546,26.666666666666664,0)" xlink:href="#K"/><use transform="matrix(0.055555555555555546,0,0,0.055555555555555546,43.27777777777777,0)" xlink:href="#C"/><use transform="matrix(0.055555555555555546,0,0,0.055555555555555546,54.38888888888888,0)" xlink:href="#ab"/><use transform="matrix(0.055555555555555546,0,0,0.055555555555555546,68.77777777777777,0)" xlink:href="#C"/><use transform="matrix(0.055555555555555546,0,0,0.055555555555555546,79.88888888888889,0)" xlink:href="#ac"/><use transform="matrix(0.055555555555555546,0,0,0.055555555555555546,91,0)" xlink:href="#w"/><use transform="matrix(0.055555555555555546,0,0,0.055555555555555546,102.11111111111111,0)" xlink:href="#Z"/><use transform="matrix(0.055555555555555546,0,0,0.055555555555555546,112.11111111111111,0)" xlink:href="#F"/><use transform="matrix(0.055555555555555546,0,0,0.055555555555555546,116.5,0)" xlink:href="#v"/><use transform="matrix(0.055555555555555546,0,0,0.055555555555555546,122.05555555555556,0)" xlink:href="#w"/><use transform="matrix(0.055555555555555546,0,0,0.055555555555555546,133.16666666666666,0)" xlink:href="#x"/><use transform="matrix(0.055555555555555546,0,0,0.055555555555555546,139.77777777777777,0)" xlink:href="#y"/></g><g id="q"><use transform="matrix(0.055555555555555546,0,0,0.055555555555555546,0,0)" xlink:href="#u"/><use transform="matrix(0.055555555555555546,0,0,0.055555555555555546,13.33333333333333,0)" xlink:href="#v"/><use transform="matrix(0.055555555555555546,0,0,0.055555555555555546,18.888888888888886,0)" xlink:href="#w"/><use transform="matrix(0.055555555555555546,0,0,0.055555555555555546,29.999999999999993,0)" xlink:href="#x"/><use transform="matrix(0.055555555555555546,0,0,0.055555555555555546,36.6111111111111,0)" xlink:href="#y"/><use transform="matrix(0.055555555555555546,0,0,0.055555555555555546,46.6111111111111,0)" xlink:href="#V"/><use transform="matrix(0.055555555555555546,0,0,0.055555555555555546,57.722222222222214,0)" xlink:href="#w"/><use transform="matrix(0.055555555555555546,0,0,0.055555555555555546,68.83333333333331,0)" xlink:href="#A"/><use transform="matrix(0.055555555555555546,0,0,0.055555555555555546,79.94444444444443,0)" xlink:href="#W"/><use transform="matrix(0.055555555555555546,0,0,0.055555555555555546,91.05555555555554,0)" xlink:href="#C"/><use transform="matrix(0.055555555555555546,0,0,0.055555555555555546,102.16666666666666,0)" xlink:href="#x"/></g><path d="M33 0v-38h34V0H33" id="ad"/><g id="r"><use transform="matrix(0.05,0,0,0.05,0,0)" xlink:href="#L"/><use transform="matrix(0.05,0,0,0.05,10,0)" xlink:href="#ad"/><use transform="matrix(0.05,0,0,0.05,15,0)" xlink:href="#ad"/><use transform="matrix(0.05,0,0,0.05,20,0)" xlink:href="#U"/></g><g id="s"><use transform="matrix(0.055555555555555546,0,0,0.055555555555555546,0,0)" xlink:href="#u"/><use transform="matrix(0.055555555555555546,0,0,0.055555555555555546,13.33333333333333,0)" xlink:href="#v"/><use transform="matrix(0.055555555555555546,0,0,0.055555555555555546,18.888888888888886,0)" xlink:href="#w"/><use transform="matrix(0.055555555555555546,0,0,0.055555555555555546,29.999999999999993,0)" xlink:href="#x"/><use transform="matrix(0.055555555555555546,0,0,0.055555555555555546,36.6111111111111,0)" xlink:href="#y"/><use transform="matrix(0.055555555555555546,0,0,0.055555555555555546,46.6111111111111,0)" xlink:href="#V"/><use transform="matrix(0.055555555555555546,0,0,0.055555555555555546,57.722222222222214,0)" xlink:href="#w"/><use transform="matrix(0.055555555555555546,0,0,0.055555555555555546,68.83333333333331,0)" xlink:href="#A"/><use transform="matrix(0.055555555555555546,0,0,0.055555555555555546,79.94444444444443,0)" xlink:href="#W"/><use transform="matrix(0.055555555555555546,0,0,0.055555555555555546,91.05555555555554,0)" xlink:href="#C"/><use transform="matrix(0.055555555555555546,0,0,0.055555555555555546,102.16666666666666,0)" xlink:href="#x"/><use transform="matrix(0.055555555555555546,0,0,0.055555555555555546,108.77777777777777,0)" xlink:href="#Y"/><use transform="matrix(0.055555555555555546,0,0,0.055555555555555546,118.77777777777779,0)" xlink:href="#Z"/><use transform="matrix(0.055555555555555546,0,0,0.055555555555555546,128.77777777777777,0)" xlink:href="#w"/><use transform="matrix(0.055555555555555546,0,0,0.055555555555555546,139.88888888888889,0)" xlink:href="#aa"/></g><path d="M101-251c68 0 85 55 85 127S166 4 100 4C33 4 14-52 14-124c0-73 17-127 87-127zm-1 229c47 0 54-49 54-102s-4-102-53-102c-51 0-55 48-55 102 0 53 5 102 54 102" id="ae"/><g id="t"><use transform="matrix(0.05,0,0,0.05,0,0)" xlink:href="#ae"/><use transform="matrix(0.05,0,0,0.05,10,0)" xlink:href="#ad"/><use transform="matrix(0.05,0,0,0.05,15,0)" xlink:href="#ad"/><use transform="matrix(0.05,0,0,0.05,20,0)" xlink:href="#U"/></g></defs></g></svg>